<svg xmlns="http://www.w3.org/2000/svg" xmlns:xlink="http://www.w3.org/1999/xlink" width="1000" zoomAndPan="magnify" viewBox="0 0 750 749.999995" height="1000" preserveAspectRatio="xMidYMid meet" version="1.0"><defs><g/><clipPath id="51aea97c9e"><path d="M 448.695312 245 L 717.945312 245 L 717.945312 374.996094 L 448.695312 374.996094 Z M 448.695312 245 " clip-rule="nonzero"/></clipPath></defs><rect x="-75" width="900" fill="#ffffff" y="-74.999999" height="899.999994" fill-opacity="1"/><rect x="-75" width="900" fill="#ffffff" y="-74.999999" height="899.999994" fill-opacity="1"/><g fill="#303030" fill-opacity="1"><g transform="translate(24.786082, 381.838454)"><g><path d="M 4.625 0 L 4.625 -14.453125 L 17.421875 -16.9375 L 17.421875 -103.25 L 4.625 -105.734375 L 4.625 -120.265625 L 54.4375 -120.265625 L 54.4375 -105.734375 L 41.546875 -103.25 L 41.546875 -18.5 L 75.5 -18.5 L 76.65625 -33.625 L 95.078125 -33.625 L 95.078125 0 Z M 4.625 0 "/></g></g></g><g fill="#303030" fill-opacity="1"><g transform="translate(123.906089, 381.838454)"><g><path d="M 4.453125 -14.453125 L 16.109375 -16.9375 L 16.109375 -72.359375 L 3.21875 -74.84375 L 3.21875 -89.375 L 40.234375 -89.375 L 40.234375 -16.9375 L 51.796875 -14.453125 L 51.796875 0 L 4.453125 0 Z M 40.234375 -110.765625 L 16.109375 -110.765625 L 16.109375 -128.859375 L 40.234375 -128.859375 Z M 40.234375 -110.765625 "/></g></g></g><g fill="#303030" fill-opacity="1"><g transform="translate(178.422094, 381.838454)"><g><path d="M 40.8125 -111.265625 L 40.8125 -89.375 L 56.5 -89.375 L 56.5 -72.4375 L 40.8125 -72.4375 L 40.8125 -26.921875 C 40.8125 -23.453125 41.523438 -20.972656 42.953125 -19.484375 C 44.378906 -18.003906 46.304688 -17.265625 48.734375 -17.265625 C 50.390625 -17.265625 51.835938 -17.332031 53.078125 -17.46875 C 54.316406 -17.601562 55.707031 -17.835938 57.25 -18.171875 L 59.3125 -0.75 C 56.613281 0.0820312 53.941406 0.703125 51.296875 1.109375 C 48.648438 1.523438 45.785156 1.734375 42.703125 1.734375 C 34.390625 1.734375 27.988281 -0.550781 23.5 -5.125 C 19.007812 -9.695312 16.765625 -16.9375 16.765625 -26.84375 L 16.765625 -72.4375 L 3.640625 -72.4375 L 3.640625 -89.375 L 16.765625 -89.375 L 16.765625 -111.265625 Z M 40.8125 -111.265625 "/></g></g></g><g fill="#303030" fill-opacity="1"><g transform="translate(241.528499, 381.838454)"><g><path d="M 40.8125 -111.265625 L 40.8125 -89.375 L 56.5 -89.375 L 56.5 -72.4375 L 40.8125 -72.4375 L 40.8125 -26.921875 C 40.8125 -23.453125 41.523438 -20.972656 42.953125 -19.484375 C 44.378906 -18.003906 46.304688 -17.265625 48.734375 -17.265625 C 50.390625 -17.265625 51.835938 -17.332031 53.078125 -17.46875 C 54.316406 -17.601562 55.707031 -17.835938 57.25 -18.171875 L 59.3125 -0.75 C 56.613281 0.0820312 53.941406 0.703125 51.296875 1.109375 C 48.648438 1.523438 45.785156 1.734375 42.703125 1.734375 C 34.390625 1.734375 27.988281 -0.550781 23.5 -5.125 C 19.007812 -9.695312 16.765625 -16.9375 16.765625 -26.84375 L 16.765625 -72.4375 L 3.640625 -72.4375 L 3.640625 -89.375 L 16.765625 -89.375 L 16.765625 -111.265625 Z M 40.8125 -111.265625 "/></g></g></g><g fill="#303030" fill-opacity="1"><g transform="translate(304.634905, 381.838454)"><g><path d="M 2.640625 -114.328125 L 2.640625 -128.859375 L 39.65625 -128.859375 L 39.65625 -16.9375 L 51.296875 -14.453125 L 51.296875 0 L 3.875 0 L 3.875 -14.453125 L 15.53125 -16.9375 L 15.53125 -111.84375 Z M 2.640625 -114.328125 "/></g></g></g><g fill="#303030" fill-opacity="1"><g transform="translate(358.572709, 381.838454)"><g><path d="M 48 1.734375 C 35.101562 1.734375 24.800781 -2.394531 17.09375 -10.65625 C 9.382812 -18.914062 5.53125 -29.40625 5.53125 -42.125 L 5.53125 -45.4375 C 5.53125 -58.707031 9.175781 -69.632812 16.46875 -78.21875 C 23.769531 -86.8125 33.5625 -91.082031 45.84375 -91.03125 C 57.90625 -91.03125 67.265625 -87.394531 73.921875 -80.125 C 80.585938 -72.851562 83.921875 -63.023438 83.921875 -50.640625 L 83.921875 -37.5 L 30.5625 -37.5 L 30.390625 -37 C 30.835938 -31.113281 32.804688 -26.269531 36.296875 -22.46875 C 39.796875 -18.664062 44.546875 -16.765625 50.546875 -16.765625 C 55.890625 -16.765625 60.320312 -17.300781 63.84375 -18.375 C 67.375 -19.445312 71.234375 -21.140625 75.421875 -23.453125 L 81.9375 -8.59375 C 78.25 -5.675781 73.472656 -3.222656 67.609375 -1.234375 C 61.742188 0.742188 55.207031 1.734375 48 1.734375 Z M 45.84375 -72.4375 C 41.382812 -72.4375 37.859375 -70.726562 35.265625 -67.3125 C 32.679688 -63.90625 31.085938 -59.421875 30.484375 -53.859375 L 30.734375 -53.4375 L 60.296875 -53.4375 L 60.296875 -55.59375 C 60.296875 -60.71875 59.097656 -64.804688 56.703125 -67.859375 C 54.304688 -70.910156 50.6875 -72.4375 45.84375 -72.4375 Z M 45.84375 -72.4375 "/></g></g></g><g fill="#303030" fill-opacity="1"><g transform="translate(170.541834, 519.907426)"><g><path d="M 58.0625 -120.265625 C 72.21875 -120.265625 83.257812 -117.507812 91.1875 -112 C 99.125 -106.5 103.09375 -98.269531 103.09375 -87.3125 C 103.09375 -81.75 101.617188 -76.773438 98.671875 -72.390625 C 95.722656 -68.015625 91.441406 -64.726562 85.828125 -62.53125 C 93.035156 -60.988281 98.441406 -57.679688 102.046875 -52.609375 C 105.660156 -47.546875 107.46875 -41.6875 107.46875 -35.03125 C 107.46875 -23.519531 103.664062 -14.800781 96.0625 -8.875 C 88.46875 -2.957031 77.703125 0 63.765625 0 L 4.625 0 L 4.625 -14.453125 L 17.421875 -16.9375 L 17.421875 -103.25 L 4.625 -105.734375 L 4.625 -120.265625 Z M 41.546875 -53.203125 L 41.546875 -18.5 L 63.765625 -18.5 C 70.160156 -18.5 75.035156 -19.890625 78.390625 -22.671875 C 81.742188 -25.453125 83.421875 -29.570312 83.421875 -35.03125 C 83.421875 -40.914062 81.988281 -45.414062 79.125 -48.53125 C 76.269531 -51.644531 71.757812 -53.203125 65.59375 -53.203125 Z M 41.546875 -69.875 L 58.890625 -69.875 C 65.335938 -69.875 70.296875 -71.195312 73.765625 -73.84375 C 77.234375 -76.488281 78.96875 -80.34375 78.96875 -85.40625 C 78.96875 -90.96875 77.21875 -95.070312 73.71875 -97.71875 C 70.226562 -100.363281 65.007812 -101.6875 58.0625 -101.6875 L 41.546875 -101.6875 Z M 41.546875 -69.875 "/></g></g></g><g fill="#303030" fill-opacity="1"><g transform="translate(282.382246, 519.907426)"><g><path d="M 62.125 0 C 61.457031 -1.488281 60.875 -3.015625 60.375 -4.578125 C 59.882812 -6.148438 59.503906 -7.734375 59.234375 -9.328125 C 56.367188 -6.023438 52.882812 -3.351562 48.78125 -1.3125 C 44.675781 0.71875 39.976562 1.734375 34.6875 1.734375 C 25.9375 1.734375 18.984375 -0.644531 13.828125 -5.40625 C 8.679688 -10.175781 6.109375 -16.660156 6.109375 -24.859375 C 6.109375 -33.234375 9.46875 -39.703125 16.1875 -44.265625 C 22.90625 -48.835938 32.765625 -51.125 45.765625 -51.125 L 58.0625 -51.125 L 58.0625 -59.890625 C 58.0625 -64.179688 56.820312 -67.507812 54.34375 -69.875 C 51.875 -72.25 48.210938 -73.4375 43.359375 -73.4375 C 40.609375 -73.4375 38.160156 -73.117188 36.015625 -72.484375 C 33.867188 -71.847656 32.132812 -71.09375 30.8125 -70.21875 L 29.234375 -60.625 L 11.0625 -60.625 L 11.15625 -80.453125 C 15.5625 -83.429688 20.613281 -85.9375 26.3125 -87.96875 C 32.007812 -90.007812 38.21875 -91.03125 44.9375 -91.03125 C 56.007812 -91.03125 65 -88.316406 71.90625 -82.890625 C 78.8125 -77.460938 82.265625 -69.738281 82.265625 -59.71875 L 82.265625 -22.796875 C 82.265625 -21.421875 82.28125 -20.125 82.3125 -18.90625 C 82.34375 -17.695312 82.441406 -16.546875 82.609375 -15.453125 L 89.953125 -14.453125 L 89.953125 0 Z M 41.21875 -16.109375 C 44.851562 -16.109375 48.15625 -16.890625 51.125 -18.453125 C 54.101562 -20.023438 56.414062 -22 58.0625 -24.375 L 58.0625 -38 L 45.765625 -38 C 40.640625 -38 36.753906 -36.800781 34.109375 -34.40625 C 31.472656 -32.007812 30.15625 -29.128906 30.15625 -25.765625 C 30.15625 -22.742188 31.128906 -20.378906 33.078125 -18.671875 C 35.035156 -16.960938 37.75 -16.109375 41.21875 -16.109375 Z M 41.21875 -16.109375 "/></g></g></g><g fill="#303030" fill-opacity="1"><g transform="translate(375.307254, 519.907426)"><g><path d="M 6.6875 -43.9375 C 6.6875 -58.039062 9.753906 -69.414062 15.890625 -78.0625 C 22.035156 -86.707031 30.644531 -91.03125 41.71875 -91.03125 C 46.726562 -91.03125 51.128906 -89.914062 54.921875 -87.6875 C 58.722656 -85.457031 61.972656 -82.273438 64.671875 -78.140625 L 66.40625 -89.375 L 87.390625 -89.375 L 87.390625 -2.640625 C 87.390625 9.140625 83.6875 18.539062 76.28125 25.5625 C 68.875 32.582031 58.703125 36.09375 45.765625 36.09375 C 41.242188 36.09375 36.453125 35.472656 31.390625 34.234375 C 26.328125 32.992188 21.644531 31.300781 17.34375 29.15625 L 21.8125 12.21875 C 25.664062 13.875 29.519531 15.179688 33.375 16.140625 C 37.226562 17.109375 41.300781 17.59375 45.59375 17.59375 C 51.488281 17.59375 55.894531 15.800781 58.8125 12.21875 C 61.726562 8.644531 63.1875 3.664062 63.1875 -2.71875 L 63.1875 -8.59375 C 60.550781 -5.226562 57.441406 -2.664062 53.859375 -0.90625 C 50.273438 0.851562 46.171875 1.734375 41.546875 1.734375 C 30.585938 1.734375 22.035156 -2.296875 15.890625 -10.359375 C 9.753906 -18.429688 6.6875 -29.046875 6.6875 -42.203125 Z M 30.8125 -42.203125 C 30.8125 -34.390625 32.128906 -28.238281 34.765625 -23.75 C 37.410156 -19.257812 41.707031 -17.015625 47.65625 -17.015625 C 51.351562 -17.015625 54.476562 -17.6875 57.03125 -19.03125 C 59.59375 -20.382812 61.644531 -22.359375 63.1875 -24.953125 L 63.1875 -63.765625 C 61.644531 -66.460938 59.59375 -68.554688 57.03125 -70.046875 C 54.476562 -71.535156 51.410156 -72.28125 47.828125 -72.28125 C 41.929688 -72.28125 37.617188 -69.660156 34.890625 -64.421875 C 32.171875 -59.191406 30.8125 -52.363281 30.8125 -43.9375 Z M 30.8125 -42.203125 "/></g></g></g><g fill="#303030" fill-opacity="1"><g transform="translate(471.949262, 519.907426)"><g><path d="M 67.734375 -11.3125 C 64.867188 -7.125 61.328125 -3.898438 57.109375 -1.640625 C 52.898438 0.609375 48.097656 1.734375 42.703125 1.734375 C 33.285156 1.734375 25.90625 -1.28125 20.5625 -7.3125 C 15.226562 -13.34375 12.5625 -22.71875 12.5625 -35.4375 L 12.5625 -72.359375 L 2.71875 -74.84375 L 2.71875 -89.375 L 36.671875 -89.375 L 36.671875 -35.265625 C 36.671875 -28.773438 37.757812 -24.109375 39.9375 -21.265625 C 42.113281 -18.429688 45.347656 -17.015625 49.640625 -17.015625 C 53.441406 -17.015625 56.734375 -17.632812 59.515625 -18.875 C 62.296875 -20.113281 64.566406 -21.890625 66.328125 -24.203125 L 66.328125 -72.359375 L 55.75 -74.84375 L 55.75 -89.375 L 90.453125 -89.375 L 90.453125 -16.9375 L 101.265625 -14.453125 L 101.265625 0 L 69.296875 0 Z M 67.734375 -11.3125 "/></g></g></g><g fill="#303030" fill-opacity="1"><g transform="translate(577.512072, 519.907426)"><g><path d="M 4.453125 -14.453125 L 16.109375 -16.9375 L 16.109375 -72.359375 L 3.21875 -74.84375 L 3.21875 -89.375 L 40.234375 -89.375 L 40.234375 -16.9375 L 51.796875 -14.453125 L 51.796875 0 L 4.453125 0 Z M 40.234375 -110.765625 L 16.109375 -110.765625 L 16.109375 -128.859375 L 40.234375 -128.859375 Z M 40.234375 -110.765625 "/></g></g></g><g fill="#303030" fill-opacity="1"><g transform="translate(632.028076, 519.907426)"><g><path d="M 5.203125 -45.515625 C 5.203125 -58.835938 8.929688 -69.753906 16.390625 -78.265625 C 23.859375 -86.773438 34.171875 -91.03125 47.328125 -91.03125 C 60.546875 -91.03125 70.882812 -86.789062 78.34375 -78.3125 C 85.8125 -69.832031 89.546875 -58.898438 89.546875 -45.515625 L 89.546875 -43.78125 C 89.546875 -30.34375 85.8125 -19.394531 78.34375 -10.9375 C 70.882812 -2.488281 60.601562 1.734375 47.5 1.734375 C 34.226562 1.734375 23.859375 -2.488281 16.390625 -10.9375 C 8.929688 -19.394531 5.203125 -30.34375 5.203125 -43.78125 Z M 29.328125 -43.78125 C 29.328125 -35.625 30.757812 -29.082031 33.625 -24.15625 C 36.488281 -19.226562 41.113281 -16.765625 47.5 -16.765625 C 53.71875 -16.765625 58.269531 -19.242188 61.15625 -24.203125 C 64.050781 -29.160156 65.5 -35.6875 65.5 -43.78125 L 65.5 -45.515625 C 65.5 -53.441406 64.039062 -59.910156 61.125 -64.921875 C 58.207031 -69.929688 53.609375 -72.4375 47.328125 -72.4375 C 41.054688 -72.4375 36.488281 -69.929688 33.625 -64.921875 C 30.757812 -59.910156 29.328125 -53.441406 29.328125 -45.515625 Z M 29.328125 -43.78125 "/></g></g></g><g clip-path="url(#51aea97c9e)"><path fill="#303030" d="M 705.992188 363.796875 C 699.085938 359.992188 708.136719 365.46875 711.710938 359.035156 C 713.304688 356.167969 714.285156 354.242188 714.875 352.996094 C 715.195312 352.320312 714.523438 351.597656 713.832031 351.878906 C 711.519531 352.8125 707.476562 353.78125 703.847656 351.421875 C 698.371094 347.847656 691.703125 342.367188 698.851562 343.082031 C 702.265625 343.425781 704.859375 343.550781 706.648438 343.589844 C 707.453125 343.605469 707.804688 342.570312 707.144531 342.097656 C 705.628906 341.007812 703.414062 339.183594 700.523438 336.175781 C 694.570312 329.984375 692.425781 330.9375 698.144531 326.410156 C 701.027344 324.125 702.582031 322.320312 703.40625 321.101562 C 703.824219 320.480469 703.242188 319.664062 702.511719 319.851562 C 700.65625 320.332031 697.742188 320.738281 695.636719 319.375 C 692.304688 317.238281 693.972656 316.042969 698.023438 316.757812 C 698.167969 316.78125 698.308594 316.8125 698.441406 316.835938 C 699.273438 316.984375 699.761719 315.925781 699.109375 315.390625 C 697.308594 313.914062 695.203125 311.777344 694.441406 309.375 L 693.027344 304.902344 C 693.027344 304.902344 693.011719 304.847656 693.003906 304.816406 C 692.910156 304.320312 692.007812 299.601562 691.097656 295.09375 C 690.152344 290.332031 686.816406 291.046875 686.578125 295.808594 C 686.34375 300.582031 686.34375 302.476562 681.582031 305.578125 C 679.699219 306.796875 678.410156 307.652344 677.539062 308.234375 C 676.933594 308.636719 677.113281 309.5625 677.828125 309.726562 C 679.941406 310.199219 683.011719 311.257812 683.011719 313.449219 C 683.011719 315.042969 681.011719 315.863281 678.714844 316.8125 C 678.449219 316.921875 678.144531 316.890625 677.914062 316.71875 C 676.304688 315.539062 674.027344 314.007812 671.820312 312.964844 C 667.765625 311.054688 663.484375 309.875 663.011719 306.53125 C 662.667969 304.15625 667.679688 304.566406 670.5625 305.003906 C 671.308594 305.109375 671.804688 304.257812 671.332031 303.671875 C 669.941406 301.949219 667.359375 299.328125 663.726562 297.960938 C 658.007812 295.816406 655.15625 292.484375 658.488281 290.582031 C 660.003906 289.71875 661.511719 288.753906 662.714844 287.960938 C 663.328125 287.558594 663.140625 286.601562 662.417969 286.46875 C 661.488281 286.300781 660.421875 285.855469 659.4375 284.863281 C 656.816406 282.234375 655.386719 279.144531 659.203125 279.375 L 660.46875 279.453125 C 661.246094 279.5 661.65625 278.546875 661.082031 278.023438 C 659.320312 276.433594 656.972656 273.882812 656.824219 271.519531 C 656.59375 267.714844 655.394531 256.75 653.484375 260.804688 C 651.582031 264.855469 651.582031 271.039062 648.722656 274.140625 C 646.785156 276.246094 643.972656 278.5625 642.363281 279.835938 C 641.851562 280.238281 642 281.046875 642.621094 281.257812 C 644.074219 281.746094 646.015625 282.617188 645.863281 283.664062 C 645.628906 285.328125 639.4375 283.183594 634.664062 287.472656 L 631.535156 290.292969 C 630.972656 290.796875 631.324219 291.730469 632.078125 291.730469 C 635.597656 291.730469 642.179688 291.933594 642.527344 293.503906 C 643.011719 295.648438 632.761719 292.003906 630.382812 295.808594 C 629.863281 296.648438 629.449219 297.300781 629.132812 297.808594 C 628.742188 298.429688 629.304688 299.222656 630.019531 299.042969 C 632.582031 298.429688 636.792969 297.816406 637.765625 300.089844 C 638.394531 301.558594 637.539062 302.523438 636.390625 303.136719 C 635.722656 303.496094 635.855469 304.503906 636.59375 304.660156 C 638.738281 305.117188 640.757812 305.925781 639.1875 307.230469 C 637.679688 308.492188 635.511719 310.480469 633.800781 312.066406 C 633.695312 312.167969 633.5625 312.234375 633.414062 312.265625 C 631.074219 312.765625 628.699219 312.882812 628.953125 311.28125 C 629.15625 309.960938 630.445312 309.121094 631.851562 308.585938 C 632.582031 308.304688 632.550781 307.277344 631.8125 307.039062 C 630.65625 306.648438 629.496094 306.042969 628.722656 305.09375 C 626.578125 302.46875 620.625 298.429688 623.484375 297.714844 C 624.96875 297.339844 625.808594 296.261719 626.273438 295.304688 C 626.578125 294.683594 626.015625 293.984375 625.347656 294.148438 C 623.972656 294.464844 622.140625 294.480469 622.289062 292.234375 C 622.519531 288.667969 621.574219 276.757812 619.429688 276.523438 C 617.285156 276.285156 617.765625 289.382812 615.378906 290.8125 C 614.6875 291.226562 614.121094 291.519531 613.65625 291.722656 C 613.070312 291.988281 612.996094 292.75 613.492188 293.136719 C 614.363281 293.8125 614.992188 294.683594 613.226562 295.085938 C 611.765625 295.421875 609.941406 295.601562 608.417969 295.695312 C 607.664062 295.742188 607.382812 296.671875 607.960938 297.164062 C 608.589844 297.691406 608.859375 298.3125 607.984375 298.894531 L 607.859375 298.980469 C 607.214844 299.40625 607.460938 300.410156 608.230469 300.488281 C 610.453125 300.707031 613.34375 301.1875 612.746094 302.234375 C 612.226562 303.152344 610.765625 303.417969 609.558594 303.472656 C 609.046875 303.496094 608.726562 303.984375 608.804688 304.496094 C 608.84375 304.769531 608.605469 305.011719 607.75 305.09375 C 606.359375 305.234375 602.949219 305.210938 600.34375 305.164062 C 599.589844 305.148438 599.242188 306.050781 599.769531 306.585938 C 600.128906 306.953125 600.257812 307.339844 599.886719 307.707031 C 599.636719 307.953125 599.398438 308.203125 599.179688 308.445312 C 598.660156 309.003906 599.109375 309.898438 599.863281 309.820312 C 602.707031 309.523438 607.539062 309.238281 608.699219 310.566406 C 610.359375 312.46875 607.5 313.425781 605.125 316.042969 C 603.484375 317.847656 601.960938 315.710938 601.167969 314.195312 C 600.902344 313.6875 600.210938 313.613281 599.832031 314.039062 C 599.101562 314.847656 597.78125 315.871094 595.605469 316.285156 C 591.796875 317 587.980469 313.191406 582.503906 312.71875 C 577.027344 312.234375 579.410156 309.625 583.699219 310.332031 C 585.890625 310.699219 588.457031 310.566406 590.445312 310.347656 C 591.308594 310.253906 591.457031 309.066406 590.648438 308.753906 C 587.726562 307.644531 584.027344 306.019531 585.851562 305.570312 C 586.886719 305.3125 587.820312 305.148438 588.605469 305.042969 C 589.257812 304.957031 589.558594 304.171875 589.117188 303.679688 C 588.695312 303.222656 588.433594 302.648438 588.703125 301.996094 C 589.265625 300.699219 592.707031 299.261719 594.648438 297.566406 C 595.222656 297.070312 594.890625 296.128906 594.128906 296.113281 C 592.125 296.074219 588.613281 295.671875 584.890625 293.65625 C 579.179688 290.566406 575.835938 289.375 581.082031 288.179688 C 584.355469 287.433594 586.785156 285.390625 588.152344 283.960938 C 588.667969 283.425781 588.261719 282.53125 587.515625 282.570312 C 583.917969 282.742188 576.445312 282.894531 576.085938 281.273438 C 575.605469 279.128906 577.035156 277.222656 582.039062 277.464844 C 584.152344 277.566406 586.40625 276.984375 588.292969 276.277344 C 589.179688 275.941406 588.90625 274.636719 587.96875 274.675781 C 586.03125 274.761719 584.113281 274.636719 583.476562 273.890625 C 582.722656 273.011719 583.949219 272.398438 585.277344 272.019531 C 586.101562 271.777344 586.070312 270.597656 585.230469 270.417969 C 584.484375 270.261719 583.523438 270.136719 582.285156 270.074219 C 577.523438 269.84375 572.285156 271.988281 575.378906 268.414062 L 577.34375 266.144531 C 577.796875 265.625 577.453125 264.824219 576.769531 264.785156 C 575.015625 264.675781 572.699219 264.347656 573.949219 263.417969 C 575.851562 261.988281 577.757812 261.753906 577.757812 261.753906 C 577.757812 261.753906 574.183594 262.234375 572.039062 256.035156 C 569.894531 249.84375 569.417969 242.226562 567.273438 247.699219 C 565.128906 253.183594 565.363281 257.464844 562.511719 260.558594 C 561.183594 262.003906 560.367188 263.339844 559.878906 264.355469 C 559.550781 265.039062 560.242188 265.761719 560.941406 265.46875 C 562.863281 264.660156 565.441406 263.820312 563.699219 266.042969 C 561.664062 268.636719 554.40625 276.585938 551.316406 279.96875 C 550.808594 280.519531 551.230469 281.398438 551.976562 281.34375 C 555.160156 281.132812 560.648438 280.976562 558.230469 282.703125 C 555.984375 284.304688 550.824219 286.664062 547.695312 288.03125 C 546.933594 288.367188 547.089844 289.492188 547.921875 289.601562 C 550.390625 289.929688 553.933594 290.136719 556.085938 289.128906 C 559.660156 287.464844 560.847656 289.367188 556.085938 292.46875 C 553.007812 294.472656 548.433594 296.371094 545.589844 297.464844 C 544.84375 297.753906 544.90625 298.808594 545.667969 299.027344 C 548.230469 299.75 551.601562 301.15625 550.847656 303.417969 C 550.4375 304.652344 549.746094 305.351562 549.007812 305.734375 C 548.425781 306.035156 548.449219 306.859375 549.023438 307.179688 C 550.59375 308.039062 551.984375 309.390625 550.847656 311.28125 C 548.703125 314.847656 550.375 316.042969 547.515625 314.613281 C 544.65625 313.183594 538.703125 312.234375 541.796875 310.566406 C 542.792969 310.03125 543.59375 309.617188 544.214844 309.308594 C 544.835938 308.996094 544.8125 308.03125 544.121094 307.792969 C 542.1875 307.117188 539.335938 305.957031 537.988281 304.613281 C 535.84375 302.46875 535.128906 300.566406 538.472656 301.273438 C 541.804688 301.988281 542.039062 301.273438 542.039062 301.273438 C 542.039062 301.273438 539.1875 300.566406 537.988281 298.652344 C 537.359375 297.644531 538.066406 296.96875 538.875 296.554688 C 539.433594 296.269531 539.480469 295.484375 538.953125 295.140625 C 537.773438 294.363281 536.117188 293.214844 535.128906 292.21875 C 533.46875 290.558594 532.277344 290.558594 534.183594 289.84375 C 536.09375 289.128906 535.84375 287.699219 535.84375 287.699219 C 535.84375 287.699219 533.226562 289.609375 533.226562 287.9375 C 533.226562 286.269531 532.277344 282.21875 531.316406 278.171875 C 530.367188 274.117188 529.652344 272.21875 528.457031 278.40625 C 527.265625 284.597656 527.980469 285.3125 526.320312 287.214844 C 525.667969 287.953125 524.625 288.660156 523.59375 289.246094 C 522.914062 289.625 523.085938 290.636719 523.847656 290.773438 C 524.695312 290.929688 525.363281 291.28125 525.363281 291.972656 C 525.363281 293.882812 521.316406 294.117188 521.316406 294.117188 C 521.316406 294.117188 525.605469 293.882812 524.648438 296.261719 C 524.230469 297.308594 522.644531 297.855469 521.011719 298.125 C 520.257812 298.25 520.09375 299.246094 520.75 299.648438 C 521.441406 300.074219 521.804688 300.613281 521.316406 301.25 C 520.871094 301.839844 520.460938 302.128906 520.09375 302.25 C 519.511719 302.453125 519.339844 303.214844 519.800781 303.625 C 520.1875 303.976562 520.6875 304.265625 521.316406 304.347656 C 523.226562 304.582031 516.078125 305.769531 514.40625 307.441406 C 513.085938 308.761719 512.816406 309.035156 512.761719 309.097656 C 513.070312 309.019531 517.980469 307.761719 517.980469 310.535156 C 517.980469 313.308594 517.980469 314.816406 514.40625 314.816406 L 510.832031 314.816406 C 510.832031 314.816406 517.742188 316.726562 516.785156 319.820312 C 515.835938 322.914062 515.121094 323.394531 510.117188 321.25 C 505.113281 319.105469 498.6875 310.292969 502.976562 311.007812 C 505.378906 311.414062 507.773438 311.210938 509.417969 310.960938 C 510.171875 310.84375 510.375 309.859375 509.730469 309.453125 C 507.609375 308.125 504.152344 305.757812 502.261719 303.394531 C 499.402344 299.828125 493.453125 292.445312 497.027344 293.160156 C 500.59375 293.875 507.507812 302.679688 512.503906 302.445312 C 513.085938 302.414062 513.601562 302.390625 514.058594 302.375 C 514.914062 302.335938 515.136719 301.195312 514.375 300.8125 C 512.605469 299.921875 510.71875 298.652344 510.359375 297.207031 C 509.972656 295.640625 510.800781 294.28125 511.632812 293.378906 C 512.070312 292.894531 511.835938 292.128906 511.199219 292.011719 C 509.125 291.644531 505.644531 290.566406 502.984375 287.441406 C 501.332031 285.507812 501.308594 284.433594 501.851562 283.84375 C 502.222656 283.441406 502.078125 282.789062 501.578125 282.5625 C 500.226562 281.957031 498.71875 280.757812 497.75 278.390625 C 496.917969 276.355469 497.304688 275.609375 498.097656 275.46875 C 498.789062 275.34375 499.046875 274.496094 498.519531 274.03125 C 496.390625 272.1875 494.136719 269.890625 495.371094 269.335938 C 497.507812 268.390625 496.558594 265.289062 494.65625 261.957031 C 492.746094 258.621094 491.082031 248.148438 490.132812 252.1875 C 489.179688 256.246094 488.222656 261.714844 485.128906 265.53125 C 482.039062 269.335938 487.75 268.621094 485.363281 270.765625 C 484.222656 271.792969 483.1875 272.828125 482.425781 273.617188 C 481.921875 274.140625 482.285156 275.011719 483.015625 275.011719 C 485.058594 275.03125 487.65625 275.296875 485.128906 276.71875 C 482.9375 277.953125 480.679688 279.96875 479.140625 281.457031 C 478.566406 282.019531 479.054688 282.980469 479.847656 282.859375 C 482.070312 282.507812 484.695312 282.414062 483.21875 284.332031 C 481.640625 286.386719 479.226562 286.976562 477.78125 287.140625 C 477.3125 287.191406 476.996094 287.621094 477.058594 288.085938 C 477.128906 288.585938 476.746094 289.097656 474.890625 289.097656 C 472.574219 289.097656 467.632812 286.882812 464.460938 285.335938 C 463.683594 284.957031 462.921875 285.871094 463.4375 286.570312 C 464.53125 288.039062 465.992188 289.84375 467.507812 291.25 C 470.601562 294.109375 471.789062 295.054688 469.644531 295.304688 C 468.914062 295.382812 468.160156 295.46875 467.476562 295.539062 C 466.660156 295.625 466.449219 296.71875 467.179688 297.09375 C 468.585938 297.808594 470.625 298.523438 472.976562 298.398438 C 477.5 298.15625 482.496094 297.199219 479.171875 299.34375 C 476.132812 301.296875 470.328125 306.417969 465.175781 307.308594 C 464.445312 307.433594 464.230469 308.40625 464.859375 308.800781 C 465.707031 309.339844 467.164062 309.828125 469.644531 309.828125 C 475.128906 309.828125 477.507812 308.164062 474.882812 309.828125 C 472.800781 311.15625 472.378906 311.429688 472.285156 311.484375 C 472.730469 311.414062 480.046875 310.152344 477.742188 313.152344 C 475.363281 316.246094 470.601562 323.867188 462.738281 323.394531 C 458.050781 323.105469 455.230469 322.742188 453.714844 322.484375 C 453.0625 322.375 452.558594 323.050781 452.839844 323.648438 C 453.777344 325.679688 455.882812 329.097656 459.402344 329.097656 C 464.398438 329.097656 466.785156 326.960938 462.738281 331.007812 C 461.292969 332.453125 460.421875 333.417969 459.902344 334.054688 C 459.472656 334.582031 459.824219 335.375 460.507812 335.398438 C 462.402344 335.46875 466.09375 335.34375 470.351562 333.867188 C 476.550781 331.722656 484.640625 330.777344 478.449219 336.011719 C 474.113281 339.679688 465.804688 342.882812 461.214844 344.464844 C 460.421875 344.738281 460.5 345.886719 461.324219 346.050781 C 465.027344 346.773438 470.109375 348.3125 467.25 351.015625 C 463.234375 354.816406 458.371094 361.550781 450.5 361.179688 C 449.785156 361.148438 449.347656 361.941406 449.785156 362.507812 C 450.878906 363.953125 453.140625 365.820312 457.25 365.058594 C 463.675781 363.867188 467.019531 363.152344 463.203125 367.203125 C 459.394531 371.25 448.679688 374.824219 448.679688 374.824219 L 452.363281 374.941406 L 711.339844 374.941406 C 711.574219 374.941406 711.796875 374.839844 711.953125 374.660156 L 717.78125 368.078125 C 718.246094 367.550781 717.882812 366.710938 717.175781 366.710938 C 714.8125 366.710938 710.554688 366.269531 705.984375 363.742188 Z M 510.847656 332.726562 C 508.882812 332.234375 508.835938 331.179688 508.992188 330.574219 C 509.070312 330.285156 509.304688 330.074219 509.589844 330.015625 C 510.710938 329.757812 513.699219 329.183594 513.699219 330.347656 C 513.699219 331.777344 513.699219 333.441406 510.839844 332.726562 Z M 589.195312 324.15625 C 589.195312 324.15625 588.480469 322.492188 590.625 322.726562 C 592.054688 322.882812 592.769531 323.753906 592.769531 325.34375 C 592.769531 327.730469 589.195312 327.730469 589.195312 324.15625 Z M 634.671875 327.960938 C 633.726562 329.867188 630.867188 329.867188 630.867188 327.730469 C 630.867188 326.992188 631.585938 326.261719 632.542969 325.617188 C 632.847656 325.414062 633.25 325.429688 633.53125 325.65625 C 634.425781 326.378906 635.054688 327.203125 634.679688 327.960938 Z M 635.109375 322.980469 C 634.984375 323.003906 634.851562 323.003906 634.734375 322.972656 C 633.46875 322.640625 632.179688 322.152344 632.296875 321.535156 C 632.410156 320.96875 634.386719 320.363281 636.4375 319.867188 C 636.597656 319.828125 636.777344 319.835938 636.941406 319.90625 C 637.984375 320.332031 638.726562 320.804688 638.726562 321.304688 C 638.726562 322.050781 637.011719 322.609375 635.109375 322.988281 Z M 634.984375 317.660156 C 634.8125 317.699219 634.640625 317.675781 634.476562 317.605469 C 633.507812 317.171875 632.871094 316.585938 633.003906 315.816406 C 633.117188 315.195312 633.445312 314.597656 633.878906 314.054688 C 633.996094 313.90625 634.167969 313.8125 634.347656 313.773438 C 636.738281 313.277344 639.558594 313.074219 639.429688 314.871094 C 639.304688 316.386719 637.152344 317.214844 634.96875 317.667969 Z M 672.519531 324.996094 C 671.796875 325.304688 671.882812 326.371094 672.652344 326.546875 C 673.484375 326.742188 674.523438 327.371094 675.164062 329.144531 C 676.359375 332.484375 672.304688 334.628906 669.210938 330.8125 C 666.117188 327.007812 660.40625 319.144531 665.164062 320.089844 C 666.816406 320.425781 667.960938 320.644531 668.738281 320.78125 C 669.367188 320.898438 669.855469 320.292969 669.660156 319.695312 C 669.445312 319.035156 669.558594 318.429688 670.882812 318.667969 C 671.324219 318.746094 671.882812 318.792969 672.503906 318.816406 C 673.203125 318.839844 673.539062 319.648438 673.09375 320.183594 C 673.09375 320.191406 673.078125 320.199219 673.070312 320.214844 C 672.652344 320.738281 673.050781 321.503906 673.710938 321.527344 C 675.667969 321.589844 678.960938 321.925781 678.960938 323.433594 C 678.960938 325.070312 674.648438 324.070312 672.511719 324.988281 Z M 672.519531 324.996094 " fill-opacity="1" fill-rule="nonzero"/></g></svg>